<svg width="489" height="100" viewBox="0 0 489 100" fill="none" xmlns="http://www.w3.org/2000/svg">
<g filter="url(#filter0_dn_29_342)">
<path d="M42.45 45.44C34.1246 46.1867 27.218 46.56 21.73 46.56C18.0713 46.56 15.3833 45.7013 13.666 43.984C11.9486 42.2667 11.09 39.5787 11.09 35.92V18C11.09 14.08 11.9673 11.2427 13.722 9.488C15.514 7.696 18.37 6.8 22.29 6.8H42.45V14.64H24.53C22.29 14.64 21.17 15.76 21.17 18V35.92C21.17 36.7787 21.4126 37.4693 21.898 37.992C22.4206 38.4773 23.074 38.72 23.858 38.72C24.642 38.72 25.5006 38.72 26.434 38.72C27.3673 38.6827 28.338 38.6453 29.346 38.608C30.354 38.5707 31.362 38.5333 32.37 38.496C33.4153 38.4587 34.7406 38.384 36.346 38.272C37.9886 38.16 40.0233 38.0293 42.45 37.88V45.44ZM45.8165 6.8H69.3365C73.2565 6.8 76.0939 7.696 77.8485 9.488C79.6405 11.2427 80.5365 14.08 80.5365 18V23.04C80.5365 26.1387 80.0139 28.5467 78.9685 30.264C77.9605 31.9813 76.3365 33.12 74.0965 33.68L81.0965 46H70.1765L63.7365 34.24H55.8965V46H45.8165V6.8ZM70.4565 18C70.4565 15.76 69.3365 14.64 67.0965 14.64H55.8965V26.4H67.0965C69.3365 26.4 70.4565 25.28 70.4565 23.04V18ZM80.5212 6.8H91.1612L100.401 25.84L109.641 6.8H120.281L105.441 35.64V46H95.3612V35.64L80.5212 6.8ZM121.397 6.8H144.917C148.837 6.8 151.674 7.696 153.429 9.488C155.221 11.2427 156.117 14.08 156.117 18V23.6C156.117 27.52 155.221 30.376 153.429 32.168C151.674 33.9227 148.837 34.8 144.917 34.8H131.477V46H121.397V6.8ZM146.037 18C146.037 15.76 144.917 14.64 142.677 14.64H131.477V26.96H142.677C144.917 26.96 146.037 25.84 146.037 23.6V18ZM179.075 46H168.995V14.64H157.235V6.8H190.835V14.64H179.075V46ZM218.841 17.44C218.841 15.2 217.721 14.08 215.481 14.08H205.961C203.721 14.08 202.601 15.2 202.601 17.44V35.36C202.601 37.6 203.721 38.72 205.961 38.72H215.481C217.721 38.72 218.841 37.6 218.841 35.36V17.44ZM228.921 35.36C228.921 39.28 228.025 42.136 226.233 43.928C224.479 45.6827 221.641 46.56 217.721 46.56H203.721C199.801 46.56 196.945 45.6827 195.153 43.928C193.399 42.136 192.521 39.28 192.521 35.36V17.44C192.521 13.52 193.399 10.6827 195.153 8.928C196.945 7.136 199.801 6.24 203.721 6.24H217.721C221.641 6.24 224.479 7.136 226.233 8.928C228.025 10.6827 228.921 13.52 228.921 17.44V35.36Z" fill="url(#paint0_linear_29_342)"/>
</g>
<g filter="url(#filter1_dn_29_342)">
<path d="M247.21 6.8H270.73C274.65 6.8 277.487 7.696 279.242 9.488C281.034 11.2427 281.93 14.08 281.93 18V23.04C281.93 26.1387 281.407 28.5467 280.362 30.264C279.354 31.9813 277.73 33.12 275.49 33.68L282.49 46H271.57L265.13 34.24H257.29V46H247.21V6.8ZM271.85 18C271.85 15.76 270.73 14.64 268.49 14.64H257.29V26.4H268.49C270.73 26.4 271.85 25.28 271.85 23.04V18ZM317.475 46H286.395V6.8H317.475V14.64H296.475V22.2H312.995V30.04H296.475V38.16H317.475V46ZM327.822 46H316.902L331.742 6.8H342.942L357.782 46H346.862L344.342 39H330.342L327.822 46ZM332.862 31.72H341.822L337.342 18.56L332.862 31.72ZM369.539 38.16H389.979V46H359.459V6.8H369.539V38.16ZM411.272 46H391.112V38.16H396.152V14.64H391.112V6.8H411.272V14.64H406.232V38.16H411.272V46ZM434.228 46H424.148V14.64H412.388V6.8H445.988V14.64H434.228V46ZM444.315 6.8H454.955L464.195 25.84L473.435 6.8H484.075L469.235 35.64V46H459.155V35.64L444.315 6.8Z" fill="url(#paint1_linear_29_342)"/>
</g>
<g filter="url(#filter2_d_29_342)">
<path d="M18.54 84.42C17.8 84.42 17.05 84.39 16.29 84.33C15.55 84.29 14.87 84.23 14.25 84.15C13.63 84.09 13.12 84.04 12.72 84C12.32 83.94 12.09 83.9 12.03 83.88L12.15 74.31L12 63.09C12.08 63.09 12.32 63.07 12.72 63.03C13.12 62.99 13.63 62.95 14.25 62.91C14.87 62.85 15.53 62.81 16.23 62.79C16.95 62.75 17.65 62.73 18.33 62.73C19.43 62.73 20.42 62.9 21.3 63.24C22.18 63.58 22.88 64.16 23.4 64.98C23.94 65.78 24.21 66.89 24.21 68.31C24.21 69.41 24.04 70.28 23.7 70.92C23.38 71.56 22.99 72.04 22.53 72.36C22.09 72.66 21.68 72.86 21.3 72.96C20.94 73.06 20.73 73.11 20.67 73.11L20.85 71.94V74.31L20.52 73.17C20.76 73.17 21.11 73.23 21.57 73.35C22.05 73.45 22.53 73.66 23.01 73.98C23.49 74.3 23.9 74.78 24.24 75.42C24.58 76.04 24.75 76.87 24.75 77.91C24.75 79.21 24.57 80.29 24.21 81.15C23.87 81.99 23.4 82.65 22.8 83.13C22.2 83.61 21.53 83.94 20.79 84.12C20.07 84.32 19.32 84.42 18.54 84.42ZM18.87 82.47C20.17 82.47 21.03 82.11 21.45 81.39C21.87 80.67 22.08 79.56 22.08 78.06C22.08 76.56 21.73 75.53 21.03 74.97C20.35 74.41 19.41 74.13 18.21 74.13H13.38L14.52 73.5L14.58 83.28L14.52 82.17C14.62 82.17 14.87 82.2 15.27 82.26C15.67 82.3 16.18 82.35 16.8 82.41C17.42 82.45 18.11 82.47 18.87 82.47ZM18.45 72.18C19.69 72.18 20.52 71.89 20.94 71.31C21.38 70.71 21.6 69.74 21.6 68.4C21.6 66.98 21.34 65.99 20.82 65.43C20.3 64.87 19.43 64.59 18.21 64.59C17.51 64.59 16.88 64.61 16.32 64.65C15.76 64.69 15.3 64.73 14.94 64.77C14.58 64.81 14.35 64.84 14.25 64.86L14.52 63.69V72.87L13.38 72.15L18.45 72.18ZM48.9977 84.03L51.5477 84L51.4277 72.36L51.5477 63.15H48.9977L49.0877 74.46L48.9977 84.03ZM32.2277 83.97L32.3477 72.81L32.2277 63.15H34.7477V71.7L34.4477 71.28C34.7477 71.24 35.2677 71.2 36.0077 71.16C36.7677 71.1 37.5977 71.07 38.4977 71.07C39.6977 71.07 40.7877 71.27 41.7677 71.67C42.7677 72.05 43.5577 72.73 44.1377 73.71C44.7377 74.67 45.0377 76.03 45.0377 77.79C45.0377 79.21 44.8077 80.41 44.3477 81.39C43.8877 82.37 43.1777 83.12 42.2177 83.64C41.2577 84.14 40.0277 84.39 38.5277 84.39C37.8677 84.39 37.1677 84.37 36.4277 84.33C35.7077 84.29 35.0277 84.24 34.3877 84.18C33.7477 84.12 33.2277 84.07 32.8277 84.03C32.4277 83.99 32.2277 83.97 32.2277 83.97ZM38.6777 73.23C37.6177 73.23 36.7377 73.28 36.0377 73.38C35.3377 73.46 34.7877 73.54 34.3877 73.62L34.7477 72.99V83.34L34.4177 81.81C34.6377 81.89 35.1477 81.98 35.9477 82.08C36.7477 82.18 37.6077 82.23 38.5277 82.23C39.2477 82.23 39.8477 82.19 40.3277 82.11C40.8077 82.01 41.1477 81.89 41.3477 81.75C41.5677 81.59 41.7877 81.27 42.0077 80.79C42.2477 80.29 42.3677 79.41 42.3677 78.15C42.3677 77.19 42.3077 76.31 42.1877 75.51C42.0677 74.71 41.8377 74.14 41.4977 73.8C41.2577 73.56 40.9177 73.41 40.4777 73.35C40.0577 73.27 39.4577 73.23 38.6777 73.23ZM56.7832 84L65.2732 73.62L65.1832 74.22V72.99L65.2432 73.59L57.4432 63.15H60.3532L67.9432 73.59L59.9632 84H56.7832ZM67.8232 84L68.0032 73.59L67.8232 63.15H70.3432L70.1632 73.59L70.3432 84H67.8232ZM81.3832 84H78.2032L70.2232 73.59L77.8132 63.15H80.7232L72.9232 73.59L72.9832 72.99V74.22L72.8932 73.62L81.3832 84ZM86.9801 84V63.15H89.5001L89.4101 74.13L89.4701 79.77L97.6001 63.15H101.38V84H98.8601L98.9501 74.13L98.8901 65.52L89.8901 84H86.9801ZM116.033 84.42C115.293 84.42 114.543 84.39 113.783 84.33C113.043 84.29 112.363 84.23 111.743 84.15C111.123 84.09 110.613 84.04 110.213 84C109.813 83.94 109.583 83.9 109.523 83.88L109.643 74.31L109.493 63.09C109.573 63.09 109.813 63.07 110.213 63.03C110.613 62.99 111.123 62.95 111.743 62.91C112.363 62.85 113.023 62.81 113.723 62.79C114.443 62.75 115.143 62.73 115.823 62.73C116.923 62.73 117.913 62.9 118.793 63.24C119.673 63.58 120.373 64.16 120.893 64.98C121.433 65.78 121.703 66.89 121.703 68.31C121.703 69.41 121.533 70.28 121.193 70.92C120.873 71.56 120.483 72.04 120.023 72.36C119.583 72.66 119.173 72.86 118.793 72.96C118.433 73.06 118.223 73.11 118.163 73.11L118.343 71.94V74.31L118.013 73.17C118.253 73.17 118.603 73.23 119.063 73.35C119.543 73.45 120.023 73.66 120.503 73.98C120.983 74.3 121.393 74.78 121.733 75.42C122.073 76.04 122.243 76.87 122.243 77.91C122.243 79.21 122.063 80.29 121.703 81.15C121.363 81.99 120.893 82.65 120.293 83.13C119.693 83.61 119.023 83.94 118.283 84.12C117.563 84.32 116.813 84.42 116.033 84.42ZM116.363 82.47C117.663 82.47 118.523 82.11 118.943 81.39C119.363 80.67 119.573 79.56 119.573 78.06C119.573 76.56 119.223 75.53 118.523 74.97C117.843 74.41 116.903 74.13 115.703 74.13H110.873L112.013 73.5L112.073 83.28L112.013 82.17C112.113 82.17 112.363 82.2 112.763 82.26C113.163 82.3 113.673 82.35 114.293 82.41C114.913 82.45 115.603 82.47 116.363 82.47ZM115.943 72.18C117.183 72.18 118.013 71.89 118.433 71.31C118.873 70.71 119.093 69.74 119.093 68.4C119.093 66.98 118.833 65.99 118.313 65.43C117.793 64.87 116.923 64.59 115.703 64.59C115.003 64.59 114.373 64.61 113.813 64.65C113.253 64.69 112.793 64.73 112.433 64.77C112.073 64.81 111.843 64.84 111.743 64.86L112.013 63.69V72.87L110.873 72.15L115.943 72.18ZM129.721 84V63.15H132.241L132.151 74.13L132.211 79.77L140.341 63.15H144.121V84H141.601L141.691 74.13L141.631 65.52L132.631 84H129.721ZM158.871 87.12V81.78C159.131 81.78 159.381 81.77 159.621 81.75C159.881 81.71 160.141 81.62 160.401 81.48C160.701 81.32 160.951 81.06 161.151 80.7C161.371 80.34 161.541 79.84 161.661 79.2C161.801 78.54 161.901 77.72 161.961 76.74L162.861 63.15H174.231V81.78H176.301V87.12H173.781L173.811 84H161.361L161.391 87.12H158.871ZM164.301 77.82C164.221 78.82 164.101 79.63 163.941 80.25C163.801 80.87 163.601 81.38 163.341 81.78H171.711L171.771 73.44L171.711 65.37H165.201L164.301 77.82ZM189.682 84.42C188.642 84.42 187.652 84.26 186.712 83.94C185.792 83.62 184.972 83.07 184.252 82.29C183.552 81.49 183.002 80.38 182.602 78.96C182.202 77.54 182.002 75.73 182.002 73.53C182.002 71.33 182.202 69.53 182.602 68.13C183.002 66.73 183.552 65.64 184.252 64.86C184.972 64.06 185.792 63.51 186.712 63.21C187.652 62.89 188.642 62.73 189.682 62.73C190.742 62.73 191.732 62.89 192.652 63.21C193.572 63.51 194.382 64.06 195.082 64.86C195.802 65.64 196.362 66.73 196.762 68.13C197.162 69.53 197.362 71.33 197.362 73.53C197.362 75.73 197.162 77.54 196.762 78.96C196.362 80.38 195.802 81.49 195.082 82.29C194.382 83.07 193.572 83.62 192.652 83.94C191.732 84.26 190.742 84.42 189.682 84.42ZM189.682 82.14C190.542 82.14 191.282 82.05 191.902 81.87C192.542 81.67 193.062 81.28 193.462 80.7C193.882 80.12 194.192 79.27 194.392 78.15C194.592 77.01 194.692 75.5 194.692 73.62C194.692 71.74 194.592 70.23 194.392 69.09C194.212 67.95 193.922 67.09 193.522 66.51C193.122 65.91 192.602 65.51 191.962 65.31C191.322 65.11 190.562 65.01 189.682 65.01C188.782 65.01 188.012 65.11 187.372 65.31C186.752 65.51 186.242 65.91 185.842 66.51C185.442 67.09 185.142 67.95 184.942 69.09C184.762 70.23 184.672 71.74 184.672 73.62C184.672 75.5 184.772 77.01 184.972 78.15C185.172 79.27 185.472 80.12 185.872 80.7C186.272 81.28 186.792 81.67 187.432 81.87C188.072 82.05 188.822 82.14 189.682 82.14ZM213.486 84V63.15H226.386V84H223.896L223.956 72.84L223.986 65.37H215.916L215.946 72.84L216.006 84H213.486ZM233.696 84L237.836 75.27C236.556 74.93 235.546 74.27 234.806 73.29C234.066 72.31 233.696 70.91 233.696 69.09C233.696 66.79 234.366 65.16 235.706 64.2C237.046 63.24 238.956 62.76 241.436 62.76C241.796 62.76 242.236 62.78 242.756 62.82C243.296 62.84 243.846 62.87 244.406 62.91C244.966 62.95 245.476 62.99 245.936 63.03C246.416 63.07 246.766 63.11 246.986 63.15L246.896 73.83L247.046 84H244.496V75.36C243.176 75.42 242.226 75.46 241.646 75.48C241.066 75.5 240.686 75.51 240.506 75.51C240.346 75.51 240.236 75.51 240.176 75.51L236.666 84H233.696ZM240.056 73.47C240.756 73.47 241.496 73.44 242.276 73.38C243.076 73.32 243.826 73.25 244.526 73.17L244.466 65.01C244.026 64.95 243.426 64.88 242.666 64.8C241.906 64.72 241.116 64.68 240.296 64.68C239.616 64.68 239.036 64.72 238.556 64.8C238.096 64.86 237.756 64.96 237.536 65.1C237.296 65.24 237.086 65.47 236.906 65.79C236.746 66.11 236.616 66.54 236.516 67.08C236.416 67.62 236.366 68.28 236.366 69.06C236.366 69.92 236.456 70.67 236.636 71.31C236.816 71.95 237.146 72.45 237.626 72.81C237.906 73.01 238.246 73.17 238.646 73.29C239.046 73.41 239.516 73.47 240.056 73.47ZM257.667 84L257.727 65.28L251.877 65.37V63.15H265.977V65.37L260.127 65.28L260.187 84H257.667ZM270.976 84V63.15H273.496L273.406 73.11L272.266 72.27H283.306L282.166 73.11L282.106 63.15H284.626V84H282.106L282.166 73.65L283.306 74.49H272.266L273.406 73.65L273.496 84H270.976ZM292.727 84V63.15H295.247L295.157 74.13L295.217 79.77L303.347 63.15H307.127V84H304.607L304.697 74.13L304.637 65.52L295.637 84H292.727ZM315.24 84V63.15H317.76L317.67 82.92L316.53 81.78H326.85L325.71 82.92L325.65 63.15H328.14V84H315.24ZM326.79 82.2L329.67 82.17V87.72H327.54L326.79 82.2ZM352.765 84.03L355.315 84L355.195 72.36L355.315 63.15H352.765L352.855 74.46L352.765 84.03ZM335.995 83.97L336.115 72.81L335.995 63.15H338.515V71.7L338.215 71.28C338.515 71.24 339.035 71.2 339.775 71.16C340.535 71.1 341.365 71.07 342.265 71.07C343.465 71.07 344.555 71.27 345.535 71.67C346.535 72.05 347.325 72.73 347.905 73.71C348.505 74.67 348.805 76.03 348.805 77.79C348.805 79.21 348.575 80.41 348.115 81.39C347.655 82.37 346.945 83.12 345.985 83.64C345.025 84.14 343.795 84.39 342.295 84.39C341.635 84.39 340.935 84.37 340.195 84.33C339.475 84.29 338.795 84.24 338.155 84.18C337.515 84.12 336.995 84.07 336.595 84.03C336.195 83.99 335.995 83.97 335.995 83.97ZM342.445 73.23C341.385 73.23 340.505 73.28 339.805 73.38C339.105 73.46 338.555 73.54 338.155 73.62L338.515 72.99V83.34L338.185 81.81C338.405 81.89 338.915 81.98 339.715 82.08C340.515 82.18 341.375 82.23 342.295 82.23C343.015 82.23 343.615 82.19 344.095 82.11C344.575 82.01 344.915 81.89 345.115 81.75C345.335 81.59 345.555 81.27 345.775 80.79C346.015 80.29 346.135 79.41 346.135 78.15C346.135 77.19 346.075 76.31 345.955 75.51C345.835 74.71 345.605 74.14 345.265 73.8C345.025 73.56 344.685 73.41 344.245 73.35C343.825 73.27 343.225 73.23 342.445 73.23Z" fill="#9CFF4A"/>
</g>
<defs>
<filter id="filter0_dn_29_342" x="7.08997" y="6.23999" width="225.831" height="48.32" filterUnits="userSpaceOnUse" color-interpolation-filters="sRGB">
<feFlood flood-opacity="0" result="BackgroundImageFix"/>
<feColorMatrix in="SourceAlpha" type="matrix" values="0 0 0 0 0 0 0 0 0 0 0 0 0 0 0 0 0 0 127 0" result="hardAlpha"/>
<feOffset dy="4"/>
<feGaussianBlur stdDeviation="2"/>
<feComposite in2="hardAlpha" operator="out"/>
<feColorMatrix type="matrix" values="0 0 0 0 1 0 0 0 0 0.72549 0 0 0 0 0.192157 0 0 0 0.45 0"/>
<feBlend mode="normal" in2="BackgroundImageFix" result="effect1_dropShadow_29_342"/>
<feBlend mode="normal" in="SourceGraphic" in2="BackgroundImageFix" result="shape"/>
<feTurbulence type="fractalNoise" baseFrequency="2 2" stitchTiles="stitch" numOctaves="3" result="noise" seed="4319" />
<feColorMatrix in="noise" type="luminanceToAlpha" result="alphaNoise" />
<feComponentTransfer in="alphaNoise" result="coloredNoise1">
<feFuncA type="discrete" tableValues="1 1 1 1 1 1 1 1 1 1 1 1 1 1 1 1 1 1 1 1 1 1 1 1 1 1 1 1 1 1 1 1 1 1 1 1 1 1 1 1 1 1 1 1 1 1 1 1 1 1 1 0 0 0 0 0 0 0 0 0 0 0 0 0 0 0 0 0 0 0 0 0 0 0 0 0 0 0 0 0 0 0 0 0 0 0 0 0 0 0 0 0 0 0 0 0 0 0 0 0 "/>
</feComponentTransfer>
<feComposite operator="in" in2="shape" in="coloredNoise1" result="noise1Clipped" />
<feComponentTransfer in="alphaNoise" result="coloredNoise2">
<feFuncA type="discrete" tableValues="0 0 0 0 0 0 0 0 0 0 0 0 0 0 0 0 0 0 0 0 0 0 0 0 0 0 0 0 0 0 0 0 0 0 0 0 0 0 0 0 0 0 0 0 0 0 0 0 0 1 1 1 1 1 1 1 1 1 1 1 1 1 1 1 1 1 1 1 1 1 1 1 1 1 1 1 1 1 1 1 1 1 1 1 1 1 1 1 1 1 1 1 1 1 1 1 1 1 1 1 "/>
</feComponentTransfer>
<feComposite operator="in" in2="shape" in="coloredNoise2" result="noise2Clipped" />
<feFlood flood-color="rgba(252, 219, 175, 0.5)" result="color1Flood" />
<feComposite operator="in" in2="noise1Clipped" in="color1Flood" result="color1" />
<feFlood flood-color="rgba(164, 97, 6, 0.25)" result="color2Flood" />
<feComposite operator="in" in2="noise2Clipped" in="color2Flood" result="color2" />
<feMerge result="effect2_noise_29_342">
<feMergeNode in="shape" />
<feMergeNode in="color1" />
<feMergeNode in="color2" />
</feMerge>
<feBlend mode="normal" in="effect2_noise_29_342" in2="effect1_dropShadow_29_342" result="effect2_noise_29_342"/>
</filter>
<filter id="filter1_dn_29_342" x="243.21" y="6.79999" width="244.865" height="47.2" filterUnits="userSpaceOnUse" color-interpolation-filters="sRGB">
<feFlood flood-opacity="0" result="BackgroundImageFix"/>
<feColorMatrix in="SourceAlpha" type="matrix" values="0 0 0 0 0 0 0 0 0 0 0 0 0 0 0 0 0 0 127 0" result="hardAlpha"/>
<feOffset dy="4"/>
<feGaussianBlur stdDeviation="2"/>
<feComposite in2="hardAlpha" operator="out"/>
<feColorMatrix type="matrix" values="0 0 0 0 0 0 0 0 0 0.85098 0 0 0 0 1 0 0 0 0.45 0"/>
<feBlend mode="normal" in2="BackgroundImageFix" result="effect1_dropShadow_29_342"/>
<feBlend mode="normal" in="SourceGraphic" in2="BackgroundImageFix" result="shape"/>
<feTurbulence type="fractalNoise" baseFrequency="2 2" stitchTiles="stitch" numOctaves="3" result="noise" seed="4319" />
<feColorMatrix in="noise" type="luminanceToAlpha" result="alphaNoise" />
<feComponentTransfer in="alphaNoise" result="coloredNoise1">
<feFuncA type="discrete" tableValues="0 0 0 0 0 0 0 0 0 0 0 0 1 1 1 1 1 1 1 1 1 1 1 1 1 1 1 1 1 1 1 1 1 1 1 1 1 1 0 0 0 0 0 0 0 0 0 0 0 0 0 0 0 0 0 0 0 0 0 0 0 0 0 0 0 0 0 0 0 0 0 0 0 0 0 0 0 0 0 0 0 0 0 0 0 0 0 0 0 0 0 0 0 0 0 0 0 0 0 0 "/>
</feComponentTransfer>
<feComposite operator="in" in2="shape" in="coloredNoise1" result="noise1Clipped" />
<feFlood flood-color="rgba(0, 217, 255, 0.5)" result="color1Flood" />
<feComposite operator="in" in2="noise1Clipped" in="color1Flood" result="color1" />
<feMerge result="effect2_noise_29_342">
<feMergeNode in="shape" />
<feMergeNode in="color1" />
</feMerge>
<feBlend mode="normal" in="effect2_noise_29_342" in2="effect1_dropShadow_29_342" result="effect2_noise_29_342"/>
</filter>
<filter id="filter2_d_29_342" x="0" y="50.73" width="367.315" height="48.99" filterUnits="userSpaceOnUse" color-interpolation-filters="sRGB">
<feFlood flood-opacity="0" result="BackgroundImageFix"/>
<feColorMatrix in="SourceAlpha" type="matrix" values="0 0 0 0 0 0 0 0 0 0 0 0 0 0 0 0 0 0 127 0" result="hardAlpha"/>
<feOffset/>
<feGaussianBlur stdDeviation="6"/>
<feComposite in2="hardAlpha" operator="out"/>
<feColorMatrix type="matrix" values="0 0 0 0 0.611765 0 0 0 0 1 0 0 0 0 0.290196 0 0 0 0.45 0"/>
<feBlend mode="normal" in2="BackgroundImageFix" result="effect1_dropShadow_29_342"/>
<feBlend mode="normal" in="SourceGraphic" in2="effect1_dropShadow_29_342" result="shape"/>
</filter>
<linearGradient id="paint0_linear_29_342" x1="120.109" y1="1.11917e-07" x2="120.591" y2="56" gradientUnits="userSpaceOnUse">
<stop stop-color="#FFD36A"/>
<stop offset="1" stop-color="#F59B22"/>
</linearGradient>
<linearGradient id="paint1_linear_29_342" x1="363.59" y1="1.11917e-07" x2="364.039" y2="56.0006" gradientUnits="userSpaceOnUse">
<stop stop-color="#B8F3FF"/>
<stop offset="1" stop-color="#048DBF"/>
</linearGradient>
</defs>
</svg>
