<svg width="24" height="24" viewBox="0 0 24 24" fill="none" xmlns="http://www.w3.org/2000/svg" aria-hidden="true"><path d="M12 15.5A3.5 3.5 0 1 0 12 8.5A3.5 3.5 0 0 0 12 15.5Z" stroke="currentColor" stroke-width="1.8"/><path d="M19 12A7.3 7.3 0 0 0 18.9 10.8L21 9.2L19 5.8L16.5 6.8A7 7 0 0 0 14.5 5.6L14.1 3H10L9.5 5.6A7 7 0 0 0 7.5 6.8L5 5.8L3 9.2L5.1 10.8A7.3 7.3 0 0 0 5.1 13.2L3 14.8L5 18.2L7.5 17.2A7 7 0 0 0 9.5 18.4L10 21H14.1L14.5 18.4A7 7 0 0 0 16.5 17.2L19 18.2L21 14.8L18.9 13.2A7.3 7.3 0 0 0 19 12Z" stroke="currentColor" stroke-width="1.4" stroke-linejoin="round"/></svg>
